<svg viewBox="0 0 24 13"  xmlns="http://www.w3.org/2000/svg">
<path d="M23.12 4.2058L19.25 0.295798C19.157 0.20207 19.0464 0.127675 18.9246 0.0769067C18.8027 0.026138 18.672 0 18.54 0C18.408 0 18.2773 0.026138 18.1554 0.0769067C18.0336 0.127675 17.923 0.20207 17.83 0.295798C17.6437 0.483161 17.5392 0.736613 17.5392 1.0008C17.5392 1.26498 17.6437 1.51844 17.83 1.7058L21.39 5.2958H1C0.734784 5.2958 0.48043 5.40116 0.292893 5.58869C0.105357 5.77623 0 6.03058 0 6.2958C0 6.56102 0.105357 6.81537 0.292893 7.00291C0.48043 7.19044 0.734784 7.2958 1 7.2958H21.45L17.83 10.9058C17.7363 10.9988 17.6619 11.1094 17.6111 11.2312C17.5603 11.3531 17.5342 11.4838 17.5342 11.6158C17.5342 11.7478 17.5603 11.8785 17.6111 12.0004C17.6619 12.1222 17.7363 12.2328 17.83 12.3258C17.923 12.4195 18.0336 12.4939 18.1554 12.5447C18.2773 12.5955 18.408 12.6216 18.54 12.6216C18.672 12.6216 18.8027 12.5955 18.9246 12.5447C19.0464 12.4939 19.157 12.4195 19.25 12.3258L23.12 8.4458C23.6818 7.8833 23.9974 7.1208 23.9974 6.3258C23.9974 5.5308 23.6818 4.7683 23.12 4.2058Z"/>
</svg>
