<svg  viewBox="0 0 12 16"  xmlns="http://www.w3.org/2000/svg">
<path d="M10.7457 5.30823L4.88631 0.644139C4.42865 0.280351 3.88714 0.0612357 3.32179 0.0110808C2.75645 -0.0390741 2.18935 0.0816903 1.68336 0.359988C1.17736 0.638286 0.752243 1.06325 0.455118 1.58776C0.157993 2.11228 0.00046759 2.71587 3.70674e-06 3.33163V12.6645C-0.000878761 13.2808 0.155823 13.8854 0.452665 14.4108C0.749508 14.9362 1.17484 15.3619 1.68133 15.6404C2.18782 15.919 2.75559 16.0395 3.32143 15.9886C3.88728 15.9377 4.429 15.7173 4.88631 15.352L10.7457 10.6879C11.1345 10.3781 11.4506 9.97339 11.6685 9.50638C11.8864 9.03937 12 8.52322 12 7.99972C12 7.47621 11.8864 6.96006 11.6685 6.49305C11.4506 6.02604 11.1345 5.62129 10.7457 5.31156V5.30823Z" />
</svg>
