<svg  viewBox="0 0 27 36" xmlns="http://www.w3.org/2000/svg">
<path d="M4.5 3.375C3.88125 3.375 3.375 3.88125 3.375 4.5V31.5C3.375 32.1188 3.88125 32.625 4.5 32.625H10.125V28.125C10.125 26.2617 11.6367 24.75 13.5 24.75C15.3633 24.75 16.875 26.2617 16.875 28.125V32.625H22.5C23.1187 32.625 23.625 32.1188 23.625 31.5V4.5C23.625 3.88125 23.1187 3.375 22.5 3.375H4.5ZM0 4.5C0 2.01797 2.01797 0 4.5 0H22.5C24.982 0 27 2.01797 27 4.5V31.5C27 33.982 24.982 36 22.5 36H4.5C2.01797 36 0 33.982 0 31.5V4.5ZM6.1875 7.3125C6.1875 6.69375 6.69375 6.1875 7.3125 6.1875H10.6875C11.3062 6.1875 11.8125 6.69375 11.8125 7.3125V10.6875C11.8125 11.3062 11.3062 11.8125 10.6875 11.8125H7.3125C6.69375 11.8125 6.1875 11.3062 6.1875 10.6875V7.3125ZM16.3125 6.1875H19.6875C20.3062 6.1875 20.8125 6.69375 20.8125 7.3125V10.6875C20.8125 11.3062 20.3062 11.8125 19.6875 11.8125H16.3125C15.6938 11.8125 15.1875 11.3062 15.1875 10.6875V7.3125C15.1875 6.69375 15.6938 6.1875 16.3125 6.1875ZM6.1875 16.3125C6.1875 15.6938 6.69375 15.1875 7.3125 15.1875H10.6875C11.3062 15.1875 11.8125 15.6938 11.8125 16.3125V19.6875C11.8125 20.3062 11.3062 20.8125 10.6875 20.8125H7.3125C6.69375 20.8125 6.1875 20.3062 6.1875 19.6875V16.3125ZM16.3125 15.1875H19.6875C20.3062 15.1875 20.8125 15.6938 20.8125 16.3125V19.6875C20.8125 20.3062 20.3062 20.8125 19.6875 20.8125H16.3125C15.6938 20.8125 15.1875 20.3062 15.1875 19.6875V16.3125C15.1875 15.6938 15.6938 15.1875 16.3125 15.1875Z" />
</svg>
