<svg  viewBox="0 0 36 36"  xmlns="http://www.w3.org/2000/svg">
<path d="M28.5 22.5H27C26.1705 22.5 25.5 21.8295 25.5 21C25.5 20.1705 26.1705 19.5 27 19.5H28.5C29.3295 19.5 30 20.1705 30 21C30 21.8295 29.3295 22.5 28.5 22.5ZM30 27C30 26.1705 29.3295 25.5 28.5 25.5H27C26.1705 25.5 25.5 26.1705 25.5 27C25.5 27.8295 26.1705 28.5 27 28.5H28.5C29.3295 28.5 30 27.8295 30 27ZM24 9C24 8.1705 23.3295 7.5 22.5 7.5H21C20.1705 7.5 19.5 8.1705 19.5 9C19.5 9.8295 20.1705 10.5 21 10.5H22.5C23.3295 10.5 24 9.8295 24 9ZM30 9C30 8.1705 29.3295 7.5 28.5 7.5H27C26.1705 7.5 25.5 8.1705 25.5 9C25.5 9.8295 26.1705 10.5 27 10.5H28.5C29.3295 10.5 30 9.8295 30 9ZM30 15C30 14.1705 29.3295 13.5 28.5 13.5H27C26.1705 13.5 25.5 14.1705 25.5 15C25.5 15.8295 26.1705 16.5 27 16.5H28.5C29.3295 16.5 30 15.8295 30 15ZM36 28.5V7.5C36 3.3645 32.6355 0 28.5 0H21C16.8645 0 13.5 3.3645 13.5 7.5C13.5 8.3295 14.1705 9 15 9C15.8295 9 16.5 8.3295 16.5 7.5C16.5 5.019 18.519 3 21 3H28.5C30.981 3 33 5.019 33 7.5V28.5C33 30.981 30.981 33 28.5 33H27C26.1705 33 25.5 33.6705 25.5 34.5C25.5 35.3295 26.1705 36 27 36H28.5C32.6355 36 36 32.6355 36 28.5ZM24 29.25V23.022C24 20.7 22.9515 18.549 21.1215 17.115L16.6215 13.5915C13.9005 11.4645 10.0995 11.463 7.3785 13.5915L2.8785 17.1135C1.0485 18.546 0 20.6985 0 23.0205V29.2485C0 32.97 3.0285 35.9985 6.75 35.9985H17.25C20.9715 35.9985 24 32.9715 24 29.25ZM14.7735 15.9555L19.2735 19.4775C20.37 20.337 21 21.63 21 23.022V29.25C21 31.3185 19.3185 33 17.25 33H6.75C4.6815 33 3 31.3185 3 29.25V23.022C3 21.6285 3.63 20.337 4.7265 19.4775L9.2265 15.957C10.0425 15.318 11.0205 14.9985 12 14.9985C12.9795 14.9985 13.9575 15.318 14.7735 15.9555ZM15 27V24C15 23.172 14.328 22.5 13.5 22.5H10.5C9.672 22.5 9 23.172 9 24V27C9 27.828 9.672 28.5 10.5 28.5H13.5C14.328 28.5 15 27.828 15 27Z" />
</svg>
