<svg  viewBox="0 0 36 36"  xmlns="http://www.w3.org/2000/svg">
<path d="M35.627 30.12L31.8635 21.8265C31.2365 20.445 29.957 19.536 28.442 19.392C26.9105 19.2465 25.4945 19.9065 24.6185 21.147L21.8555 25.062L9.75953 17.5905L11.408 12.9945C11.552 12.591 11.864 12.27 12.2615 12.1095C12.4355 12.0345 12.623 11.9985 12.8135 11.9985C13.0415 11.9985 13.2725 12.051 13.4855 12.1575L14.1905 12.423C15.221 12.936 16.007 13.8165 16.4015 14.901L18.041 19.671C18.314 20.4645 19.184 20.88 19.973 20.5935C20.7425 20.3145 21.146 19.4685 20.879 18.6945L19.2215 13.875C18.5645 12.0645 17.2535 10.5945 15.53 9.7365L14.825 9.471C13.6745 8.898 12.3335 8.844 11.141 9.324C9.94853 9.8025 9.01703 10.7715 8.58353 11.9805L7.14953 15.9765L2.28803 12.9735C1.58303 12.5385 0.659034 12.7545 0.224034 13.461C-0.210966 14.166 0.00653359 15.09 0.711534 15.525L20.1215 27.516L18.7655 29.4375C17.8655 30.7095 17.753 32.358 18.4685 33.7395C19.19 35.133 20.618 35.9985 22.1915 35.9985H31.808C33.242 35.9985 34.5605 35.28 35.3345 34.08C36.1025 32.8875 36.2105 31.407 35.6255 30.1185L35.627 30.12ZM32.813 32.457C32.7095 32.6205 32.4005 33 31.8095 33H22.193C21.536 33 21.233 32.553 21.134 32.361C21.038 32.175 20.852 31.686 21.218 31.1685L27.071 22.875C27.374 22.446 27.7955 22.374 28.0445 22.374C28.088 22.374 28.1285 22.374 28.1585 22.3785C28.367 22.3995 28.877 22.5045 29.1305 23.0655L32.894 31.3605C33.1265 31.8735 32.915 32.298 32.8115 32.4555L32.813 32.457ZM13.5005 3.75C13.5005 1.6785 15.179 0 17.2505 0C19.322 0 21.0005 1.6785 21.0005 3.75C21.0005 5.8215 19.322 7.5 17.2505 7.5C15.179 7.5 13.5005 5.8215 13.5005 3.75ZM15.0005 28.5V34.5C15.0005 35.3295 14.33 36 13.5005 36C12.671 36 12.0005 35.3295 12.0005 34.5V28.5C12.0005 27.6705 12.671 27 13.5005 27C14.33 27 15.0005 27.6705 15.0005 28.5ZM7.28903 24.3045L3.49103 35.0025C3.27203 35.616 2.69453 36 2.07803 36C1.91153 36 1.74203 35.9715 1.57553 35.913C0.794034 35.6355 0.387534 34.7775 0.665034 33.9975L4.46303 23.2995C4.74053 22.518 5.59253 22.113 6.37853 22.389C7.16003 22.6665 7.56653 23.5245 7.28903 24.3045Z" />
</svg>
