<svg  viewBox="0 0 36 36"  xmlns="http://www.w3.org/2000/svg">
<path d="M34.455 9.3765C33.4995 8.8455 32.3325 8.88 31.305 9.528L24 15.0015V12C24 10.9095 23.4075 9.9045 22.455 9.3765C21.4995 8.8455 20.331 8.88 19.305 9.528L12 15.0015V3C12.8295 3 13.5 2.328 13.5 1.5C13.5 0.672 12.8295 0 12 0H1.5C0.6705 0 0 0.672 0 1.5C0 2.328 0.6705 3 1.5 3V28.5C1.5 32.6355 4.8645 36 9 36H28.5C32.6355 36 36 32.6355 36 28.5V12C36 10.9095 35.4075 9.9045 34.455 9.3765ZM33 28.5C33 30.981 30.981 33 28.5 33H9C6.519 33 4.5 30.981 4.5 28.5V3H9V17.9865C9 17.997 9 18.0075 9 18.0165V27C9 27.828 9.6705 28.5 10.5 28.5C11.3295 28.5 12 27.828 12 27V18.75L21 12V18C21 18.5685 21.321 19.0875 21.8295 19.3425C22.338 19.5975 22.944 19.5435 23.4 19.2015L33 12.0015V28.5ZM21 25.5V27C21 27.828 20.328 28.5 19.5 28.5H18C17.172 28.5 16.5 27.828 16.5 27V25.5C16.5 24.672 17.172 24 18 24H19.5C20.328 24 21 24.672 21 25.5ZM24 27V25.5C24 24.672 24.672 24 25.5 24H27C27.828 24 28.5 24.672 28.5 25.5V27C28.5 27.828 27.828 28.5 27 28.5H25.5C24.672 28.5 24 27.828 24 27Z"/>
</svg>
