<svg  viewBox="0 0 26 34"  xmlns="http://www.w3.org/2000/svg">
<path d="M24.735 33.9885C24.6744 33.9956 24.6137 33.9998 24.5545 33.9998C23.8366 33.9998 23.214 33.4757 23.123 32.7588C22.4614 27.5696 18.3938 24.0832 13.0001 24.0832C7.60648 24.0832 3.53885 27.5696 2.87729 32.7588C2.77762 33.5352 2.0496 34.0877 1.26525 33.9885C0.473684 33.8922 -0.0882151 33.1838 0.0114534 32.4075C0.849247 25.8384 6.18946 21.2499 13.0001 21.2499C19.8108 21.2499 25.1525 25.8384 25.9888 32.4075C26.0871 33.1838 25.5266 33.8922 24.735 33.9885ZM2.1666 9.91661C2.1666 9.13462 2.81373 8.49995 3.61108 8.49995H4.33331V7.79163C4.33331 3.4949 7.89682 0 12.2779 0H13.7224C18.1035 0 21.667 3.4949 21.667 7.79163V8.49995H22.3892C23.1866 8.49995 23.8337 9.13462 23.8337 9.91661C23.8337 10.6986 23.1866 11.3333 22.3892 11.3333H21.667C21.667 16.021 17.7799 19.8332 13.0001 19.8332C8.22039 19.8332 4.33331 16.021 4.33331 11.3333H3.61108C2.81373 11.3333 2.1666 10.6986 2.1666 9.91661ZM18.778 11.3333H7.22226C7.22226 14.4584 9.81364 16.9999 13.0001 16.9999C16.1866 16.9999 18.778 14.4584 18.778 11.3333ZM7.22226 8.49995H18.778V7.79163C18.778 5.29831 16.8915 3.22857 14.4446 2.88432V5.66664C14.4446 6.44863 13.7975 7.0833 13.0001 7.0833C12.2028 7.0833 11.5557 6.44863 11.5557 5.66664V2.88432C9.10874 3.22857 7.22226 5.29831 7.22226 7.79163V8.49995Z"/>
</svg>
