<svg  viewBox="0 0 36 36"  xmlns="http://www.w3.org/2000/svg">
<path d="M31.5 23.9998V17.9998C31.4995 15.9846 31.047 13.9951 30.1758 12.178C29.3046 10.3608 28.0369 8.76217 26.466 7.49982H30.4155C30.7479 8.06624 31.2578 8.50729 31.8662 8.75469C32.4745 9.0021 33.1475 9.04206 33.7809 8.8684C34.4143 8.69473 34.9728 8.31712 35.3699 7.79403C35.767 7.27093 35.9806 6.63151 35.9777 5.97476C35.9747 5.318 35.7553 4.68054 35.3535 4.16103C34.9517 3.64153 34.3899 3.26896 33.7549 3.10101C33.12 2.93305 32.4474 2.97907 31.8413 3.23194C31.2352 3.48481 30.7293 3.93043 30.402 4.49982H23.787C23.4596 3.21344 22.7129 2.07282 21.6649 1.25816C20.6169 0.443489 19.3274 0.0012207 18 0.0012207C16.6726 0.0012207 15.3831 0.443489 14.3351 1.25816C13.2871 2.07282 12.5404 3.21344 12.213 4.49982H5.5845C5.25208 3.9334 4.74222 3.49235 4.13384 3.24494C3.52546 2.99754 2.85249 2.95758 2.2191 3.13124C1.58572 3.3049 1.02724 3.68251 0.63012 4.20561C0.233 4.72871 0.0193838 5.36812 0.0223392 6.02488C0.0252946 6.68163 0.244656 7.3191 0.646468 7.8386C1.04828 8.35811 1.61013 8.73067 2.24506 8.89863C2.87998 9.06659 3.55256 9.02057 4.15869 8.7677C4.76482 8.51483 5.27069 8.06921 5.598 7.49982H9.534C7.96314 8.76217 6.69543 10.3608 5.82422 12.178C4.95301 13.9951 4.5005 15.9846 4.5 17.9998V23.9998C3.30653 23.9998 2.16193 24.4739 1.31802 25.3178C0.474106 26.1618 0 27.3063 0 28.4998L0 31.4998C0 32.6933 0.474106 33.8379 1.31802 34.6818C2.16193 35.5257 3.30653 35.9998 4.5 35.9998H7.5C8.69347 35.9998 9.83807 35.5257 10.682 34.6818C11.5259 33.8379 12 32.6933 12 31.4998V28.4998C12 27.3063 11.5259 26.1618 10.682 25.3178C9.83807 24.4739 8.69347 23.9998 7.5 23.9998V17.9998C7.50244 16.1529 7.99201 14.3393 8.91931 12.742C9.8466 11.1447 11.1788 9.82025 12.7815 8.90232C13.2929 9.83978 14.0474 10.6222 14.9657 11.1673C15.884 11.7123 16.9321 12 18 12C19.0679 12 20.116 11.7123 21.0343 11.1673C21.9526 10.6222 22.7071 9.83978 23.2185 8.90232C24.8212 9.82025 26.1534 11.1447 27.0807 12.742C28.008 14.3393 28.4976 16.1529 28.5 17.9998V23.9998C27.3065 23.9998 26.1619 24.4739 25.318 25.3178C24.4741 26.1618 24 27.3063 24 28.4998V31.4998C24 32.6933 24.4741 33.8379 25.318 34.6818C26.1619 35.5257 27.3065 35.9998 28.5 35.9998H31.5C32.6935 35.9998 33.8381 35.5257 34.682 34.6818C35.5259 33.8379 36 32.6933 36 31.4998V28.4998C36 27.3063 35.5259 26.1618 34.682 25.3178C33.8381 24.4739 32.6935 23.9998 31.5 23.9998ZM9 28.4998V31.4998C9 31.8976 8.84196 32.2792 8.56066 32.5605C8.27936 32.8418 7.89782 32.9998 7.5 32.9998H4.5C4.10218 32.9998 3.72064 32.8418 3.43934 32.5605C3.15804 32.2792 3 31.8976 3 31.4998V28.4998C3 28.102 3.15804 27.7205 3.43934 27.4392C3.72064 27.1579 4.10218 26.9998 4.5 26.9998H7.5C7.89782 26.9998 8.27936 27.1579 8.56066 27.4392C8.84196 27.7205 9 28.102 9 28.4998ZM18 8.99982C17.4067 8.99982 16.8266 8.82387 16.3333 8.49423C15.8399 8.16458 15.4554 7.69605 15.2284 7.14787C15.0013 6.59969 14.9419 5.99649 15.0576 5.41455C15.1734 4.8326 15.4591 4.29806 15.8787 3.8785C16.2982 3.45894 16.8328 3.17322 17.4147 3.05746C17.9967 2.94171 18.5999 3.00112 19.1481 3.22818C19.6962 3.45524 20.1648 3.83976 20.4944 4.33311C20.8241 4.82645 21 5.40647 21 5.99982C21 6.79547 20.6839 7.55853 20.1213 8.12114C19.5587 8.68375 18.7956 8.99982 18 8.99982ZM33 31.4998C33 31.8976 32.842 32.2792 32.5607 32.5605C32.2794 32.8418 31.8978 32.9998 31.5 32.9998H28.5C28.1022 32.9998 27.7206 32.8418 27.4393 32.5605C27.158 32.2792 27 31.8976 27 31.4998V28.4998C27 28.102 27.158 27.7205 27.4393 27.4392C27.7206 27.1579 28.1022 26.9998 28.5 26.9998H31.5C31.8978 26.9998 32.2794 27.1579 32.5607 27.4392C32.842 27.7205 33 28.102 33 28.4998V31.4998Z" />
</svg>
